# xmcd
#
# Track frame offsets:
# 150
# 19209
# 37344
# 54472
# 74162
# 90749
# 110819
# 128008
# 148688
# 162724
# 183756
# 202665
# 218300
#
# Disc length: 3137 seconds
#
#
# Revision: 0
# Processed by: cddbd v1.5.2PL0 Copyright (c) Steve Scherf et al.
# Submitted via: FreeRIP 2.944 
#
DISCID=c00c3f0d
DTITLE=Little Big Town (The Road To Nowhere) - The Road To Nowhere
DYEAR=1900
DGENRE=Country
TTITLE0=Good As Gone
TTITLE1=Boondocks
TTITLE2=Bones
TTITLE3=Bring It On Home
TTITLE4=Wounded
TTITLE5=A Little More You
TTITLE6=Live With Lonesome
TTITLE7=Mean Streak
TTITLE8=Looking For A Reason
TTITLE9=Lost
TTITLE10=Welcome To The Family
TTITLE11=Fine With Me
TTITLE12=Stay (Acoustic)
EXTD=
EXTT0=
EXTT1=
EXTT2=
EXTT3=
EXTT4=
EXTT5=
EXTT6=
EXTT7=
EXTT8=
EXTT9=
EXTT10=
EXTT11=
EXTT12=
PLAYORDER=
